<svg xmlns:dc="http://purl.org/dc/elements/1.1/" xmlns:cc="http://creativecommons.org/ns#" xmlns:rdf="http://www.w3.org/1999/02/22-rdf-syntax-ns#" xmlns:svg="http://www.w3.org/2000/svg" xmlns="http://www.w3.org/2000/svg" xmlns:sodipodi="http://sodipodi.sourceforge.net/DTD/sodipodi-0.dtd" xmlns:inkscape="http://www.inkscape.org/namespaces/inkscape" version="1.1" id="Layer_1" x="0px" y="0px" viewBox="0 0 18 18" style="enable-background:new 0 0 18 18;" xml:space="preserve"><metadata id="metadata10"></metadata><defs id="defs8"/><g transform="matrix(0.0345094,0,0,0.0345094,0.19121167,0.11679859)" id="g4"><g id="g6"><path d="m 80.1,405.6 c 3.5,2.4 17,9.1 28.4,-5.3 l 77.2,-112.8 81.7,78.8 c 4.3,4.1 10.2,6.3 16.2,5.6 5.9,-0.6 11.3,-3.7 14.8,-8.6 L 433.9,169 l 4.9,65 c 1.2,16.5 16.7,19.2 21.9,18.8 11.2,-0.9 19.7,-10.6 18.8,-21.9 L 470.9,116.6 C 470.1,105.4 460.3,96.9 449,97.8 l -114.3,8.6 c -11.2,0.8 -19.7,10.6 -18.8,21.9 0.8,11.2 10.5,19.6 21.9,18.8 l 65,-4.9 -124.2,178 -81.9,-79 c -4.3,-4.2 -10.3,-6.3 -16.2,-5.6 -6,0.6 -11.4,3.8 -14.8,8.8 L 74.8,377.2 c -6.4,9.3 -4,22 5.3,28.4 z" id="path8"/><path d="m 480.6,460.2 -428.8,0 0,-428.8 C 51.8,20.1 42.7,11 31.4,11 20.1,11 11,20.1 11,31.4 l 0,449.2 c 0,11.3 9.1,20.4 20.4,20.4 l 449.2,0 c 11.3,0 20.4,-9.1 20.4,-20.4 0,-11.3 -9.1,-20.4 -20.4,-20.4 z" id="path10"/></g></g></svg>